<?xml version="1.0" encoding="UTF-8"?>
<!DOCTYPE svg PUBLIC "-//W3C//DTD SVG 1.1//EN" "http://www.w3.org/Graphics/SVG/1.1/DTD/svg11.dtd">
<!-- Creator: CorelDRAW 2018 (64-Bit) -->
<svg xmlns="http://www.w3.org/2000/svg" xml:space="preserve" width="135.114mm" height="49.7416mm" version="1.1" style="shape-rendering:geometricPrecision; text-rendering:geometricPrecision; image-rendering:optimizeQuality; fill-rule:evenodd; clip-rule:evenodd"
viewBox="0 0 13511.38 4974.16"
 xmlns:xlink="http://www.w3.org/1999/xlink">
 <defs>
  <style type="text/css">
   <![CDATA[
    .fil1 {fill:#2B2A29;fill-rule:nonzero}
    .fil2 {fill:#1F1B20;fill-rule:nonzero}
    .fil3 {fill:#00A0E3;fill-rule:nonzero}
    .fil0 {fill:#008DD2;fill-rule:nonzero}
   ]]>
  </style>
 </defs>
 <g id="Layer_x0020_1">
  <metadata id="CorelCorpID_0Corel-Layer"/>
  <path class="fil0" d="M6774.5 2334.1c-244.7,0 -438.89,-74.08 -582.57,-222.25 -144.05,-148.17 -215.89,-356.2 -215.89,-624.85 0,-258.92 72.21,-465.08 216.26,-619.24 144.42,-153.77 338.61,-230.85 583.31,-230.85 64.74,0 123.48,3.74 175.12,10.86 52,7.47 101.38,17.57 148.9,30.68 37.43,11.21 77.83,26.19 121.61,45.26 43.78,18.72 79.31,35.17 106.26,49.02l0 389.51 -41.54 0c-19.83,-17.59 -44.52,-38.18 -74.45,-62.5 -30.3,-24.32 -63.99,-48.27 -102.15,-71.45 -37.79,-23.21 -79.7,-43.04 -125.34,-59.49 -45.64,-16.09 -93.53,-24.32 -143.3,-24.32 -59.12,0 -113.38,9.34 -162.77,28.06 -49.01,18.33 -96.14,50.87 -140.68,96.53 -40.77,41.53 -74.46,98.03 -100.27,168.74 -25.82,70.72 -38.91,154.15 -38.91,250.31 0,101.4 13.46,186.7 40.41,255.56 27.32,68.83 62.48,124.58 106.63,166.86 42.28,40.8 89.43,70.34 141.81,88.69 52.01,18.33 104.38,27.3 156.03,27.3 54.24,0 105.51,-8.97 154.52,-26.55 49.02,-17.6 90.54,-37.43 123.85,-59.13 36.66,-22.08 68.84,-44.89 96.52,-68.1 27.7,-23.19 52.01,-43.76 72.22,-61.72l37.42 0 0 383.13c-29.93,13.85 -64.73,29.56 -104.02,47.52 -39.29,17.96 -80.07,32.92 -121.6,45.27 -51.25,15.35 -98.77,26.94 -143.3,35.18 -44.53,7.85 -105.88,11.97 -184.08,11.97zm1925.79 -31.44l-383.89 0 0 -609.88c0,-49.75 -1.87,-99.14 -5.99,-148.54 -4.11,-49.38 -11.6,-85.67 -22.83,-108.87 -13.09,-27.7 -32.18,-47.9 -57.24,-59.87 -25.08,-11.98 -58.37,-17.96 -100.27,-17.96 -31.8,0 -63.61,5.98 -96.16,17.59 -32.18,11.6 -66.98,30.3 -103.64,55.75l0 871.78 -383.9 0 0 -1706.15 383.9 0 0 612.12c62.85,-53.51 124.22,-95.05 183.71,-124.98 59.48,-29.93 125.72,-44.89 197.93,-44.89 125.71,0 221.87,39.66 288.48,118.98 66.6,78.95 99.9,193.81 99.9,344.22l0 800.7zm667.12 0l-383.89 0 0 -1230.22 383.89 0 0 1230.22zm11.21 -1405.34l-406.33 0 0 -298.58 406.33 0 0 298.58zm666.38 1405.34l-383.89 0 0 -1706.15 383.89 0 0 1706.15zm677.61 0l-383.89 0 0 -1706.15 383.89 0 0 1706.15z"/>
  <path class="fil1" d="M10859.18 2302.66l550.76 -1632.07 267.88 0 550.77 1632.07 -229.73 0 -147.43 -453.47 -624.84 0 -147.04 453.47 -220.37 0zm930.9 -642.06l-251.44 -766.26 -250.68 766.26 502.12 0zm787.97 642.06l-206.53 0 0 -1223.49 206.53 0 0 1223.49zm15.72 -1430.02l-235.73 0 0 -213.28 235.73 0 0 213.28zm932.78 428.78l-10.86 0c-15.33,-4.12 -31.81,-6.36 -48.64,-7.49 -17.22,-1.11 -37.79,-1.5 -62.11,-1.5 -55.38,0 -110.37,11.99 -165.37,35.92 -54.64,24.33 -106.27,59.87 -155.28,107.39l0 866.92 -206.53 0 0 -1223.49 206.53 0 0 181.84c75.21,-66.6 140.68,-113.38 196.43,-140.68 55.75,-27.32 110,-41.16 162.75,-41.16 20.97,0 37.06,0.37 47.52,1.5 10.48,1.11 22.45,2.98 35.56,5.23l0 215.52zm-7003.87 3062.67c-118.23,0 -218.87,-12.34 -301.57,-36.67 -83.06,-24.69 -160.89,-54.99 -233.84,-90.55l0 -272.39 15.33 0c71.47,66.99 152.28,119 242.84,155.66 90.17,37.03 177.34,55.37 261.16,55.37 119.36,0 209.9,-25.06 271.25,-74.83 61,-50.14 91.67,-115.62 91.67,-197.17 0,-65.12 -16.09,-117.86 -47.89,-158.66 -32.18,-40.78 -83.05,-71.08 -152.65,-90.54 -50.51,-14.59 -96.53,-26.93 -138.07,-36.29 -41.53,-9.36 -93.91,-22.45 -156.76,-38.54 -56.13,-14.6 -106.65,-32.93 -151.17,-55.75 -44.53,-22.44 -83.81,-52.01 -118.24,-88.67 -33.67,-35.92 -59.86,-77.83 -78.2,-126.48 -18.69,-48.64 -28.06,-104.76 -28.06,-168.37 0,-132.08 51.64,-242.83 154.53,-332.25 103.28,-89.41 234.61,-134.32 394.75,-134.32 91.28,0 177.71,8.99 259.28,27.32 81.58,18.32 156.77,44.52 226.37,78.19l0 260.41 -16.46 0c-51.64,-47.51 -118.23,-89.04 -199.43,-124.22 -80.81,-35.54 -165.76,-53.13 -254.8,-53.13 -101.02,0 -182.21,23.57 -244.32,70.35 -62.11,47.14 -93.18,108.88 -93.18,185.58 0,68.85 18.35,123.84 54.64,165.01 36.29,40.77 89.04,70.34 157.88,89.41 46.04,12.36 102.53,26.58 168.76,42.28 66.59,15.72 121.6,29.95 165.37,43.41 112.63,34.05 194.94,86.05 246.58,155.28 52.01,69.6 77.81,154.89 77.81,256.3 0,63.61 -13.08,126.47 -38.91,188.57 -25.82,62.11 -62.1,114.86 -108.87,157.9 -52.38,47.52 -111.87,83.81 -178.1,109.63 -65.85,25.43 -148.55,38.16 -247.7,38.16zm1314.8 -2.24c-195.32,0 -347.23,-55.01 -455.36,-164.64 -108.13,-109.62 -162.01,-265.64 -162.01,-467.69 0,-199.06 52.38,-357.33 157.16,-475.19 104.39,-117.85 241.32,-176.6 410.45,-176.6 76.33,0 143.66,10.86 202.04,32.93 58.74,21.71 110,56.13 153.77,102.89 44.16,46.77 77.83,103.65 101.03,171.37 23.58,67.34 35.16,150.04 35.16,247.68l0 111.88 -850.82 0c0,141.81 35.92,250.31 107.75,325.15 71.83,75.2 171.37,112.62 298.2,112.62 45.28,0 90.17,-5.24 133.58,-15.35 43.78,-10.1 83.07,-23.57 118.23,-39.66 37.43,-16.83 69.23,-32.91 94.66,-48.64 25.82,-15.71 47.16,-30.67 63.98,-44.51l11.98 0 0 224.86c-24.32,9.36 -54.26,21.33 -90.18,35.55 -35.92,14.22 -68.09,25.44 -96.53,33.29 -40.4,10.86 -76.69,19.46 -109.24,25.44 -32.57,5.62 -74.1,8.62 -123.85,8.62zm242.45 -774.51c-1.5,-55.38 -8.23,-103.28 -19.83,-143.31 -11.6,-40.04 -28.82,-74.08 -50.51,-101.77 -24.33,-30.31 -55.37,-53.88 -93.17,-69.97 -37.79,-16.09 -84.55,-23.95 -140.68,-23.95 -55.01,0 -101.77,8.25 -140.31,24.71 -38.53,16.46 -73.7,40.03 -105.14,71.45 -31.05,32.18 -54.26,67.73 -70.71,106.65 -16.09,38.9 -26.19,84.56 -30.68,136.19l651.03 0zm1055.87 -253.68l-10.84 0c-15.35,-4.11 -31.81,-6.36 -48.65,-7.49 -17.21,-1.11 -37.78,-1.5 -62.11,-1.5 -55.37,0 -110.38,11.99 -165.37,35.92 -54.64,24.33 -106.26,59.87 -155.29,107.39l0 866.92 -206.53 0 0 -1223.49 206.53 0 0 181.84c75.22,-66.6 140.69,-113.38 196.44,-140.68 55.74,-27.31 110,-41.16 162.75,-41.16 20.96,0 37.05,0.37 47.52,1.5 10.49,1.11 22.45,2.98 35.55,5.23l0 215.52zm1644.05 -222.25l-309.8 1223.49 -190.45 0 -298.95 -943.25 -296.7 943.25 -189.34 0 -313.16 -1223.49 213.26 0 217.03 947.36 289.97 -947.36 169.86 0 297.83 947.36 204.29 -947.36 206.16 0zm395.5 1223.49l-206.54 0 0 -1223.49 206.54 0 0 1223.49zm15.71 -1430.02l-235.72 0 0 -213.28 235.72 0 0 213.28zm615.86 1456.97c-81.57,0 -157.9,-10.86 -228.98,-32.94 -71.47,-22.07 -130.21,-45.27 -176.99,-70.33l0 -231.24 10.86 0c17.59,13.85 38.17,29.56 61.74,46.41 23.56,17.2 54.99,34.79 94.29,53.12 34.78,16.46 72.95,30.69 114.85,43.41 41.91,12.34 85.32,18.7 130.21,18.7 32.55,0 67.36,-3.74 104.39,-11.6 37.05,-7.47 64.74,-17.2 83.07,-29.18 25.44,-16.84 43.78,-34.8 55,-53.87 11.23,-19.1 16.84,-47.9 16.84,-86.06 0,-49.01 -13.1,-86.06 -39.29,-111.14 -26.18,-24.69 -72.95,-45.63 -139.56,-62.48 -26.2,-6.72 -60.61,-14.22 -103.26,-22.44 -42.28,-8.6 -81.57,-17.97 -117.49,-28.07 -93.16,-26.93 -161.27,-68.84 -203.55,-125.34 -42.28,-56.5 -63.6,-124.97 -63.6,-205.41 0,-110 41.52,-199.8 124.97,-269.4 83.44,-69.21 193.82,-104.02 331.88,-104.02 68.1,0 136.56,8.62 205.03,25.45 68.84,16.83 126.46,37.8 173.24,63.61l0 220.75 -10.86 0c-52.38,-42.27 -110.74,-75.58 -175.09,-100.27 -64.36,-24.32 -129.47,-36.67 -194.95,-36.67 -67.34,0 -124.59,14.22 -170.99,43.02 -46.76,28.44 -69.97,71.48 -69.97,129.47 0,51.25 13.85,89.41 41.17,114.86 27.3,25.08 71.08,45.65 131.32,62.11 30.69,7.86 64.74,15.72 102.52,23.21 37.42,7.85 77.08,16.82 118.99,26.93 90.54,22.83 158.64,60.23 204.29,112.63 45.65,52.75 68.46,124.22 68.46,214.76 0,52.39 -10.46,102.52 -31.04,149.28 -20.96,47.16 -51.27,87.56 -91.67,121.24 -43.78,36.29 -93.18,63.98 -148.17,83.05 -55.01,19.1 -124.22,28.45 -207.66,28.45z"/>
  <path class="fil1" d="M878.31 3846.99c-70.01,0 -137.29,17.47 -197,50.27 -314.48,-403.12 -487.1,-903.92 -487.1,-1416.97 0,-1270.82 1033.86,-2304.69 2304.69,-2304.69 154.51,0 308.92,15.37 459,45.71 52.8,10.67 104.36,-23.51 115.04,-76.38 10.7,-52.86 -23.48,-104.37 -76.36,-115.09 -162.77,-32.88 -330.21,-49.54 -497.67,-49.54 -667.77,0 -1295.59,260.05 -1767.78,732.22 -472.17,472.19 -732.23,1100.02 -732.23,1767.78 0,561.72 190.74,1109.89 537.99,1549.34 -44.71,66.8 -68.73,145.3 -68.73,227.51 0,109.56 42.67,212.55 120.16,290 77.43,77.48 180.43,120.15 289.99,120.15 109.55,0 212.56,-42.67 290.04,-120.15 77.47,-77.45 120.12,-180.48 120.12,-290.03 0,-109.52 -42.65,-212.56 -120.12,-290.01 -77.48,-77.47 -180.49,-120.12 -290.04,-120.12zm151.91 562.06c-40.56,40.58 -94.53,62.95 -151.9,62.95 -57.38,0 -111.33,-22.37 -151.91,-62.95 -40.58,-40.59 -62.95,-94.53 -62.95,-151.91 0,-57.4 22.37,-111.35 62.95,-151.93 40.56,-40.58 94.53,-62.9 151.91,-62.9 57.37,0 111.3,22.34 151.9,62.9 40.59,40.58 62.93,94.53 62.93,151.93 0,57.38 -22.34,111.33 -62.93,151.91z"/>
  <path class="fil0" d="M4460.86 930.83c106.16,-159.25 89.1,-377 -51.32,-517.41 -77.47,-77.45 -180.47,-120.14 -290.02,-120.14 -109.56,0 -212.55,42.69 -290.03,120.14 -77.48,77.47 -120.12,180.47 -120.12,290.02 0,109.57 42.64,212.56 120.12,290.03 77.48,77.48 180.47,120.12 290.03,120.12 69.99,0 137.29,-17.47 196.99,-50.27 314.48,403.18 487.09,903.94 487.09,1416.97 0,1270.83 -1033.85,2304.69 -2304.69,2304.69 -152.96,0 -305.94,-15.07 -454.6,-44.82 -52.86,-10.57 -104.33,23.72 -114.93,76.6 -10.57,52.91 23.72,104.34 76.59,114.93 161.26,32.23 327.12,48.61 492.94,48.61 667.77,0 1295.59,-260.05 1767.78,-732.24 472.19,-472.19 732.24,-1100 732.24,-1767.78 0,-561.75 -190.79,-1109.96 -538.07,-1549.45zm-493.24 -75.44c-40.59,-40.59 -62.95,-94.53 -62.95,-151.95 0,-57.38 22.36,-111.3 62.95,-151.89 40.54,-40.6 94.53,-62.95 151.9,-62.95 57.36,0 111.35,22.35 151.94,62.95 83.72,83.77 83.72,220.07 0,303.84 -40.59,40.54 -94.58,62.91 -151.94,62.91 -57.42,0 -111.36,-22.37 -151.9,-62.91z"/>
  <path class="fil1" d="M3398.12 349.63c25.7,0 50.88,-10.45 69.05,-28.61 18.15,-18.27 28.61,-43.46 28.61,-69.17 0,-25.56 -10.43,-50.76 -28.61,-69.04 -18.17,-18.16 -43.35,-28.61 -69.05,-28.61 -25.8,0 -50.86,10.45 -69.01,28.61 -18.19,18.28 -28.66,43.38 -28.66,69.04 0,25.8 10.47,50.9 28.66,69.17 18.15,18.16 43.21,28.61 69.01,28.61z"/>
  <path class="fil0" d="M1603.98 4612.72c-25.67,0 -50.88,10.45 -69.05,28.61 -18.16,18.15 -28.61,43.37 -28.61,69.03 0,25.8 10.45,50.9 28.61,69.05 18.17,18.17 43.38,28.61 69.05,28.61 25.68,0 50.88,-10.44 69.05,-28.61 18.15,-18.15 28.61,-43.37 28.61,-69.05 0,-25.66 -10.46,-50.88 -28.61,-69.03 -18.17,-18.16 -43.37,-28.61 -69.05,-28.61z"/>
  <path class="fil1" d="M1476.73 3727.2c204.71,0 399.21,-98.68 520.3,-264.01 13.6,-18.56 9.58,-44.63 -8.98,-58.23 -18.51,-13.61 -44.68,-9.58 -58.23,9 -105.47,143.95 -274.82,229.92 -453.09,229.92 -309.4,0 -561.16,-251.56 -561.16,-560.76 0,-309.18 251.76,-560.74 561.16,-560.74l2647.19 0c23.03,0 41.66,-18.65 41.66,-41.67 0,-23 -18.63,-41.66 -41.66,-41.66l-2647.19 0c-355.38,0 -644.49,288.93 -644.49,644.06 0,355.16 289.11,644.09 644.49,644.09z"/>
  <path class="fil1" d="M2306.65 1294.6c124.47,0 242.75,60.02 316.41,160.53 13.63,18.58 39.67,22.53 58.23,8.98 18.56,-13.58 22.57,-39.67 9,-58.23 -89.29,-121.86 -232.68,-194.62 -383.64,-194.62 -262,0 -475.14,213.03 -475.14,474.86 0,261.83 213.14,474.84 475.14,474.84l1816.87 0c23.02,0 41.67,-18.67 41.67,-41.67 0,-23.02 -18.65,-41.66 -41.67,-41.66l-1816.87 0c-216.02,0 -391.81,-175.63 -391.81,-391.51 0,-215.87 175.79,-391.52 391.81,-391.52z"/>
  <path class="fil1" d="M4123.92 2799.64l-1128.51 0c-261.96,0 -475.1,213.01 -475.1,474.82 0,261.85 213.13,474.86 475.1,474.86 150.96,0 294.35,-72.76 383.64,-194.62 13.58,-18.56 9.56,-44.63 -8.99,-58.23 -18.52,-13.56 -44.61,-9.61 -58.24,9 -73.65,100.5 -191.94,160.51 -316.41,160.51 -216.02,0 -391.76,-175.63 -391.76,-391.52 0,-215.87 175.74,-391.49 391.76,-391.49l1128.51 0c23.03,0 41.66,-18.67 41.66,-41.67 0,-23.02 -18.63,-41.67 -41.66,-41.67l0 0.01z"/>
  <path class="fil2" d="M1165.82 2217.39c183.92,0 333.58,-149.63 333.58,-333.55 0,-183.93 -149.66,-333.56 -333.58,-333.56 -183.92,0 -333.58,149.63 -333.58,333.56 0,183.92 149.66,333.55 333.58,333.55zm0 -583.78c137.99,0 250.25,112.25 250.25,250.23 0,137.97 -112.26,250.22 -250.25,250.22 -137.99,0 -250.25,-112.25 -250.25,-250.22 0,-137.98 112.26,-250.23 250.25,-250.23z"/>
  <path class="fil2" d="M1250.21 1098.41c0,157.04 127.77,284.79 284.8,284.79 157.02,0 284.79,-127.75 284.79,-284.79 0,-157.05 -127.77,-284.8 -284.79,-284.8 -157.03,0 -284.8,127.75 -284.8,284.8zm486.26 0c0,111.08 -90.39,201.45 -201.46,201.45 -111.09,0 -201.47,-90.37 -201.47,-201.45 0,-111.09 90.38,-201.46 201.47,-201.46 111.07,0 201.46,90.37 201.46,201.46z"/>
  <path class="fil2" d="M1941.33 3862.17c0,157.05 127.77,284.79 284.8,284.79 157.02,0 284.79,-127.74 284.79,-284.79 0,-157.03 -127.77,-284.79 -284.79,-284.79 -157.03,0 -284.8,127.76 -284.8,284.79zm486.26 0c0,111.08 -90.38,201.46 -201.46,201.46 -111.09,0 -201.47,-90.38 -201.47,-201.46 0,-111.09 90.38,-201.46 201.47,-201.46 111.08,0 201.46,90.37 201.46,201.46z"/>
  <polygon class="fil3" points="3545.62,1599.51 3532.96,1552.26 3421.93,1582.01 3273.82,1496.5 3421.93,1410.99 3532.96,1440.74 3545.62,1393.47 3481.84,1376.39 3558.44,1332.15 3533.97,1289.79 3457.39,1334.01 3474.48,1270.23 3427.21,1257.57 3397.46,1368.6 3249.35,1454.12 3249.35,1283.09 3330.63,1201.81 3296.04,1167.21 3249.35,1213.9 3249.35,1125.44 3200.43,1125.44 3200.43,1213.9 3153.74,1167.21 3119.15,1201.81 3200.43,1283.09 3200.43,1454.12 3052.32,1368.6 3022.56,1257.57 2975.31,1270.23 2992.39,1334.01 2915.81,1289.79 2891.33,1332.15 2967.93,1376.39 2904.15,1393.47 2916.81,1440.74 3027.85,1410.99 3175.97,1496.5 3027.85,1582.01 2916.81,1552.26 2904.15,1599.51 2967.93,1616.61 2891.33,1660.83 2915.81,1703.21 2992.39,1658.99 2975.31,1722.76 3022.56,1735.43 3052.32,1624.38 3200.43,1538.87 3200.43,1709.89 3119.15,1791.19 3153.74,1825.79 3200.43,1779.1 3200.43,1867.54 3249.35,1867.54 3249.35,1779.1 3296.04,1825.79 3330.63,1791.19 3249.35,1709.89 3249.35,1538.87 3397.46,1624.38 3427.21,1735.43 3474.48,1722.76 3457.39,1658.99 3533.97,1703.21 3558.44,1660.83 3481.84,1616.61 "/>
  <polygon class="fil3" points="1974.69,3059.94 1963.88,3019.59 1869.09,3044.99 1742.63,2971.97 1869.09,2898.96 1963.88,2924.36 1974.69,2884.02 1920.25,2869.43 1985.64,2831.66 1964.76,2795.48 1899.36,2833.24 1913.94,2778.79 1873.59,2767.98 1848.19,2862.79 1721.74,2935.79 1721.74,2789.78 1791.15,2720.37 1761.6,2690.84 1721.74,2730.7 1721.74,2655.18 1679.97,2655.18 1679.97,2730.7 1640.1,2690.84 1610.57,2720.37 1679.97,2789.78 1679.97,2935.79 1553.52,2862.79 1528.12,2767.98 1487.76,2778.79 1502.35,2833.24 1436.95,2795.48 1416.07,2831.66 1481.46,2869.43 1427.02,2884.02 1437.83,2924.36 1532.62,2898.96 1659.08,2971.97 1532.62,3044.99 1437.83,3019.59 1427.02,3059.94 1481.46,3074.53 1416.07,3112.29 1436.95,3148.47 1502.35,3110.7 1487.76,3165.17 1528.12,3175.98 1553.52,3081.17 1679.97,3008.16 1679.97,3154.18 1610.57,3223.59 1640.1,3253.12 1679.97,3213.26 1679.97,3288.78 1721.74,3288.78 1721.74,3213.26 1761.6,3253.12 1791.15,3223.59 1721.74,3154.18 1721.74,3008.16 1848.19,3081.17 1873.59,3175.98 1913.94,3165.17 1899.36,3110.7 1964.76,3148.47 1985.64,3112.29 1920.25,3074.53 "/>
  <polygon class="fil3" points="4154.22,3471.23 4143.42,3430.88 4048.61,3456.28 3922.16,3383.26 4048.61,3310.25 4143.42,3335.65 4154.22,3295.31 4099.77,3280.72 4165.18,3242.95 4144.28,3206.78 4078.9,3244.53 4093.48,3190.09 4053.13,3179.27 4027.73,3274.08 3901.28,3347.08 3901.28,3201.07 3970.67,3131.66 3941.14,3102.11 3901.28,3141.97 3901.28,3066.47 3859.49,3066.47 3859.49,3141.97 3819.64,3102.11 3790.11,3131.66 3859.49,3201.07 3859.49,3347.08 3733.04,3274.08 3707.64,3179.27 3667.3,3190.09 3681.88,3244.53 3616.49,3206.78 3595.59,3242.95 3661,3280.72 3606.54,3295.31 3617.35,3335.65 3712.16,3310.25 3838.62,3383.26 3712.16,3456.28 3617.35,3430.88 3606.54,3471.23 3661,3485.82 3595.59,3523.57 3616.49,3559.76 3681.88,3521.99 3667.3,3576.46 3707.64,3587.27 3733.04,3492.46 3859.49,3419.45 3859.49,3565.47 3790.11,3634.88 3819.64,3664.41 3859.49,3624.55 3859.49,3700.07 3901.28,3700.07 3901.28,3624.55 3941.14,3664.41 3970.67,3634.88 3901.28,3565.47 3901.28,3419.45 4027.73,3492.46 4053.13,3587.27 4093.48,3576.46 4078.9,3521.99 4144.28,3559.76 4165.18,3523.57 4099.77,3485.82 "/>
 </g>
</svg>
